<?xml version="1.0" encoding="UTF-8" standalone="no"?>
<!-- Created with Inkscape (http://www.inkscape.org/) -->

<svg
   xmlns:dc="http://purl.org/dc/elements/1.1/"
   xmlns:cc="http://creativecommons.org/ns#"
   xmlns:rdf="http://www.w3.org/1999/02/22-rdf-syntax-ns#"
   xmlns:svg="http://www.w3.org/2000/svg"
   xmlns="http://www.w3.org/2000/svg"
   xmlns:sodipodi="http://sodipodi.sourceforge.net/DTD/sodipodi-0.dtd"
   xmlns:inkscape="http://www.inkscape.org/namespaces/inkscape"
   width="210mm"
   height="297mm"
   viewBox="0 0 744.09448819 1052.3622047"
   id="svg2"
   version="1.1"
   inkscape:version="0.91 r13725"
   sodipodi:docname="ryoma.svg">
  <defs
     id="defs4" />
  <sodipodi:namedview
     id="base"
     pagecolor="#ffffff"
     bordercolor="#666666"
     borderopacity="1.0"
     inkscape:pageopacity="0.0"
     inkscape:pageshadow="2"
     inkscape:zoom="0.94483461"
     inkscape:cx="239.52737"
     inkscape:cy="658.68699"
     inkscape:document-units="px"
     inkscape:current-layer="layer1"
     showgrid="false"
     inkscape:window-width="1920"
     inkscape:window-height="1018"
     inkscape:window-x="-8"
     inkscape:window-y="-8"
     inkscape:window-maximized="1" />
  <metadata
     id="metadata7">
    <rdf:RDF>
      <cc:Work
         rdf:about="">
        <dc:format>image/svg+xml</dc:format>
        <dc:type
           rdf:resource="http://purl.org/dc/dcmitype/StillImage" />
        <dc:title></dc:title>
      </cc:Work>
    </rdf:RDF>
  </metadata>
  <g
     inkscape:label="Layer 1"
     inkscape:groupmode="layer"
     id="layer1">
    <path
       style="fill:#000000;fill-opacity:1;stroke-width:0;stroke-miterlimit:4;stroke-dasharray:none;stroke-dashoffset:0"
       id="path3650"
       d="m 291.19328,130.12778 c -2.78517,-6.93039 -4.68746,-14.21671 -5.51499,-21.6459 -0.21893,-1.96548 -0.31022,-3.94308 -0.46533,-5.91462 -1.45663,-19.177383 5.8016,-37.2147 12.68804,-54.704833 7.60933,-16.819766 15.88202,-33.710068 27.49715,-48.19517638 1.31144,-1.63548562 2.75092,-3.16404312 4.12638,-4.74606462 3.16861,-3.4924419 6.35481,-5.611097 10.42539,-7.799202 0,0 6.37056,12.93067782 6.37056,12.93067782 l 0,0 c -2.47394,0.97258238 -4.55815,2.40692098 -6.49149,4.26736758 -1.21854,1.2619248 -2.49681,2.4687826 -3.65562,3.7857745 -11.42396,12.9834411 -19.2556,28.7319011 -26.22617,44.4108941 -5.92518,15.650305 -12.13637,31.878927 -10.7828,48.920662 0.63618,7.59505 1.76026,15.21641 5.05297,22.17837 0,0 -13.02409,6.51205 -13.02409,6.51205 z"
       inkscape:connector-curvature="0" />
    <path
       style="fill:#000000;fill-opacity:1;stroke-width:0;stroke-miterlimit:4;stroke-dasharray:none;stroke-dashoffset:0"
       id="path3652"
       d="m 336.15645,92.536364 c -6.21384,-3.473442 -11.54989,-8.795315 -14.56936,-15.319389 -0.87492,-1.890414 -1.46264,-3.900936 -2.19396,-5.851405 -0.4883,-2.238506 -1.15577,-4.445323 -1.46489,-6.715518 -1.81036,-13.295327 1.36793,-26.759121 5.88936,-39.199 1.44503,-3.975729 3.21943,-7.823898 4.82914,-11.735847 5.42071,-11.4965281 11.84746,-22.4815628 19.0856,-32.923998 3.70804,-5.349573 7.82099,-10.823657 12.22371,-15.650038 1.7381,-1.90535 3.65564,-3.638914 5.48346,-5.458371 6.76054,-5.030184 3.25749,-3.025217 10.40691,-6.190133 0,0 4.96268,13.339052 4.96268,13.339052 l 0,0 c -3.56544,0.714882 -1.51149,0.04145 -5.8603,2.776108 -1.59595,1.460896 -3.27415,2.836733 -4.78785,4.382687 -12.54416,12.811443 -21.59933,28.6732391 -29.48193,44.622863 -1.43573,3.569148 -3.02358,7.080812 -4.3072,10.707444 -4.20209,11.872185 -6.98888,24.74223 -3.79096,37.179298 0.43329,1.206186 0.77211,2.450611 1.29987,3.618557 1.59266,3.524635 4.20008,6.575579 7.4212,8.69639 0,0 -5.14548,13.7213 -5.14548,13.7213 z"
       inkscape:connector-curvature="0" />
    <path
       style="fill:#000000;fill-opacity:1;stroke-width:0;stroke-miterlimit:4;stroke-dasharray:none;stroke-dashoffset:0"
       id="path3654"
       d="m 357.24565,63.520332 c -4.32446,-9.494252 -3.35446,-20.289669 -0.77887,-30.155034 0.84007,-3.21778 2.02605,-6.335176 3.03908,-9.502764 7.50499,-18.0382721 16.76243,-35.761422 30.02572,-50.304122 2.46226,-2.699766 5.23074,-5.103433 7.84612,-7.655149 9.25169,-7.713409 20.11891,-13.152292 31.88218,-15.809133 5.12941,-1.158522 7.74167,-1.181237 12.82058,-1.558278 1.72538,0.02291 3.45075,0.04581 5.17613,0.06872 0,0 -0.42413,14.124924 -0.42413,14.124924 l 0,0 c -1.3077,-0.06817 -2.61539,-0.136336 -3.92309,-0.204503 -3.74297,0.151758 -6.28363,0.122346 -10.02775,0.853912 -9.6449,1.884522 -18.61496,6.06609 -26.33121,12.129528 -2.29717,2.139645 -4.73936,4.133465 -6.8915,6.418935 -12.34019,13.1047238 -20.68455,29.411297 -27.33988,45.964732 -2.71036,8.794521 -6.07907,18.764781 -2.66092,27.870444 0,0 -12.41246,7.757791 -12.41246,7.757791 z"
       inkscape:connector-curvature="0" />
    <path
       style="fill:#000000;fill-opacity:1;stroke-width:0;stroke-miterlimit:4;stroke-dasharray:none;stroke-dashoffset:0"
       id="path3656"
       d="m 391.64727,50.835365 c -1.5034,-12.125134 1.2453,-24.406241 4.03484,-36.149771 3.07321,-11.1373984 7.93712,-21.7682337 15.27721,-30.766536 4.77821,-5.857668 6.26834,-6.629176 12.02534,-11.412771 11.16551,-8.024202 24.28047,-11.902561 37.78693,-13.611258 2.42927,-0.307326 4.87627,-0.453056 7.3144,-0.679583 6.06344,0.0055 12.42135,-0.478248 18.32782,1.324741 1.71275,0.522829 3.29076,1.413649 4.93613,2.120473 0,0 -6.26334,12.812783 -6.26334,12.812783 l 0,0 c -0.56251,-0.37247 -1.05987,-0.87004 -1.68754,-1.11741 -4.45234,-1.754723 -9.47827,-1.24837 -14.12695,-1.411678 -13.81084,1.090345 -25.92047,3.20009 -37.61708,11.180352 -4.54954,3.632777 -5.8711,4.330181 -9.68384,8.8406684 -6.32814,7.48619816 -10.39344,16.4502258 -13.03108,25.8260816 -2.17032,9.411899 -4.50981,19.79265 -3.07052,29.488326 0,0 -14.22232,3.555582 -14.22232,3.555582 z"
       inkscape:connector-curvature="0" />
    <path
       style="fill:#000000;fill-opacity:1;stroke-width:0;stroke-miterlimit:4;stroke-dasharray:none;stroke-dashoffset:0"
       id="path3658"
       d="m 413.51422,53.518577 c 1.18458,-1.640825 2.28136,-3.34876 3.55374,-4.922475 4.84623,-5.993929 11.21312,-12.619912 16.54031,-17.888804 9.89975,-9.791426 20.53338,-19.613177 31.20204,-28.5229567 6.14807,-5.1344744 12.54225,-9.9668713 18.81337,-14.9503073 6.37822,-4.415351 12.58094,-9.09565 19.13466,-13.246054 15.81431,-10.015054 34.33794,-19.847168 52.85699,-23.705178 12.84407,-2.675762 15.24707,-1.553391 27.65841,-0.341141 9.85746,3.146828 11.04713,2.872499 19.58579,7.917036 2.34684,1.386489 4.4807,3.10538 6.72106,4.65807 0,0 -8.04139,11.117239 -8.04139,11.117239 l 0,0 c -1.68973,-1.290044 -3.28994,-2.706669 -5.06919,-3.87013 -6.33678,-4.143629 -7.43976,-4.080537 -14.75716,-6.855157 -3.40811,-0.507983 -6.78021,-1.418057 -10.22435,-1.523949 -21.6292,-0.665007 -44.45328,10.920192 -62.28952,21.974454 -6.36168,3.942735 -12.36575,8.435196 -18.54862,12.6527941 -6.06668,4.89284827 -12.28785,9.6001149 -18.20005,14.6785449 -10.83572,9.307598 -19.86171,18.172303 -29.50385,28.58946 -4.91473,5.309758 -9.99937,11.260282 -14.26181,17.215925 -0.80297,1.121935 -1.45634,2.343726 -2.18451,3.515588 0,0 -12.98592,-6.492959 -12.98592,-6.492959 z"
       inkscape:connector-curvature="0" />
    <path
       style="fill:#000000;fill-opacity:1;stroke-width:0;stroke-miterlimit:4;stroke-dasharray:none;stroke-dashoffset:0"
       id="path3660"
       d="m 449.04181,54.190753 c -0.23746,-1.092711 -0.66102,-2.161099 -0.71237,-3.278134 -0.59824,-13.011951 14.01983,-24.221362 22.59095,-31.663693 4.23994,-2.866336 8.31682,-5.990073 12.71983,-8.599009 21.02451,-12.4577645 45.0338,-20.5726959 69.31894,-23.34405 5.6319,-0.642697 11.32055,-0.608778 16.98082,-0.913166 5.19515,0.409665 10.43034,0.465939 15.58544,1.228995 14.28005,2.113725 29.3318,7.5966065 41.16481,15.9903213 1.81075,1.2844563 3.45085,2.7939714 5.17628,4.1909571 1.23424,1.2655801 2.46847,2.5311606 3.70271,3.7967406 0,0 -10.41225,9.574004 -10.41225,9.574004 l 0,0 c -0.77907,-0.924006 -1.55815,-1.848012 -2.33722,-2.772018 -1.24374,-1.137406 -2.41067,-2.364968 -3.73121,-3.412217 -9.6355,-7.6413603 -22.66505,-12.7429796 -34.68646,-14.83228585 -4.59039,-0.79780343 -9.27061,-0.94253767 -13.90591,-1.41380645 -5.18273,0.1839027 -10.38816,0.03339 -15.54819,0.55170808 -22.55896,2.26601792 -44.83379,9.83999332 -64.1271,21.73890222 -3.89721,2.403558 -7.47021,5.296921 -11.20532,7.945381 -2.67858,2.47333 -5.4833,4.816681 -8.03574,7.419989 -3.5782,3.649519 -6.11195,7.334464 -8.58537,11.680726 -0.27221,0.478315 -0.16552,0.458352 -0.46688,0.331044 0,0 -13.48576,5.779611 -13.48576,5.779611 z"
       inkscape:connector-curvature="0" />
    <path
       style="fill:#000000;fill-opacity:1;stroke-width:0;stroke-miterlimit:4;stroke-dasharray:none;stroke-dashoffset:0"
       id="path3662"
       d="m 520.61288,64.601771 c -0.47565,0.191986 -0.95115,0.384315 -1.42694,0.575958 -0.63145,0.254343 -1.27857,0.472665 -1.89478,0.762 -1.2616,0.592377 -2.34904,1.553153 -3.62839,2.126565 -0.67105,0.300765 -1.37754,0.515191 -2.06631,0.772787 -1.67454,-4.576107 -4.06088,-8.951506 -5.02361,-13.728322 -0.16178,-0.802704 1.30208,-0.993312 1.95767,-1.483934 1.55864,-1.166438 3.10133,-2.354931 4.68496,-3.487208 5.92079,-4.233291 13.55551,-9.453732 19.61908,-12.977772 5.43408,-3.158192 11.05819,-5.977457 16.58729,-8.966185 20.1451,-9.805559 41.08215,-17.873733 62.43195,-24.6332023 10.64815,-3.37126644 26.7092,-7.929765 37.8852,-10.0974997 5.32288,-1.032445 10.73293,-1.5492518 16.0994,-2.3238777 15.01145,-0.8985208 30.74167,-0.1147094 43.55375,8.7273547 5.52273,3.8114322 6.22572,5.5851987 10.06071,10.732927 3.00831,4.781584 4.19994,10.071162 5.24069,15.515572 0,0 -14.00102,2.445094 -14.00102,2.445094 l 0,0 c -0.51747,-3.437305 -1.07262,-6.831066 -2.70875,-9.960179 -1.98507,-3.199086 -2.42433,-4.459996 -5.55766,-6.960557 -9.86888,-7.8758662 -22.93776,-8.3541387 -34.97266,-8.1539998 -5.00909,0.5826404 -10.05656,0.8979371 -15.02727,1.7479212 -10.85544,1.8562647 -26.59402,6.0304516 -36.90452,9.1986436 -20.7126,6.36453 -40.92646,14.304227 -60.1866,24.262772 -15.14506,8.896706 -13.64068,7.421275 -26.37057,16.829808 -4.40284,3.254099 -7.24939,5.642522 -11.15566,9.090512 -0.82803,0.730884 -1.716,3.062619 -2.44664,2.234367 -3.12506,-3.542608 -4.4207,-8.349958 -6.63105,-12.524938 -0.58224,0.236562 -1.16276,0.477387 -1.7467,0.709685 -0.23278,0.0926 0.47205,-0.172687 0.6931,-0.290558 1.87662,-1.000658 3.68656,-2.030994 5.62964,-2.903699 0.51385,-0.230786 1.01739,-0.483863 1.52608,-0.725794 0,0 5.77961,13.485759 5.77961,13.485759 z"
       inkscape:connector-curvature="0" />
    <path
       style="fill:#000000;fill-opacity:1;stroke-width:0;stroke-miterlimit:4;stroke-dasharray:none;stroke-dashoffset:0"
       id="path3664"
       d="m 346.53998,119.40838 c -1.39456,-0.24807 -3.00557,-0.8134 -4.44945,-0.48866 -0.13891,0.0312 -0.396,0.2692 -0.26837,0.33231 0.48527,0.23994 1.62917,-0.218 1.5918,0.32206 -0.11129,1.60829 -1.28081,2.95896 -1.92121,4.43845 -0.74314,2.58671 -1.61635,5.13955 -2.22944,7.76014 -3.3458,14.30144 -4.84254,31.07136 -3.44442,45.70545 0.28012,2.93206 0.93225,5.81658 1.39837,8.72487 2.62992,7.57326 0.84352,4.46315 4.73884,9.66018 0,0 -11.7733,7.39892 -11.7733,7.39892 l 0,0 c -5.29627,-9.33698 -3.15604,-4.295 -6.21914,-15.20994 -0.41111,-3.37916 -0.99969,-6.74142 -1.23332,-10.13746 -0.56431,-8.20293 -0.27311,-16.77473 0.31253,-24.95358 0.83213,-11.62141 2.33237,-23.22786 5.72241,-34.41021 2.88377,-6.75564 2.68015,-8.92644 9.27071,-13.26643 2.60844,-1.7177 8.67301,-0.63705 11.68017,-0.16891 0,0 -3.17618,14.29281 -3.17618,14.29281 z"
       inkscape:connector-curvature="0" />
    <path
       style="fill:#000000;fill-opacity:1;stroke-width:0;stroke-miterlimit:4;stroke-dasharray:none;stroke-dashoffset:0"
       id="path3666"
       d="m 373.40625,127.48848 c -7.11661,8.5776 -8.45931,19.71667 -9.97252,30.37004 -0.40863,7.34491 -0.48966,14.89936 3.33876,21.48245 0.9618,1.65386 2.37958,2.99647 3.56937,4.49471 0,0 -11.10664,7.99797 -11.10664,7.99797 l 0,0 c -1.7325,-2.55991 -3.81396,-4.91558 -5.19752,-7.67971 -4.41088,-8.81227 -4.59926,-18.51032 -3.98546,-28.10142 1.70585,-13.26774 3.43936,-25.75672 11.40595,-36.92768 0,0 11.94806,8.36364 11.94806,8.36364 z"
       inkscape:connector-curvature="0" />
    <path
       style="fill:#000000;fill-opacity:1;stroke-width:0;stroke-miterlimit:4;stroke-dasharray:none;stroke-dashoffset:0"
       id="path3668"
       d="m 414.78401,133.67596 c -4.05911,0.8287 -6.00234,2.74807 -8.08637,6.17614 -3.44732,7.7286 -3.57814,16.51257 -1.60432,24.6802 0.56018,2.31797 1.45263,4.5428 2.17894,6.8142 1.10401,2.35449 2.20802,4.70898 3.31203,7.06347 0,0 -12.24314,5.70625 -12.24314,5.70625 l 0,0 c -1.3431,-2.89594 -2.6862,-5.79188 -4.02929,-8.68783 -0.90704,-2.91462 -2.01936,-5.77313 -2.7211,-8.74387 -2.25651,-9.5527 -2.36313,-20.13288 0.91153,-29.46723 0.63005,-1.79596 1.53658,-3.48261 2.30487,-5.22392 0.9674,-1.40972 1.80614,-2.91698 2.90221,-4.22915 3.85894,-4.61976 9.48255,-7.3593 15.25585,-8.63858 0,0 1.81879,14.55032 1.81879,14.55032 z"
       inkscape:connector-curvature="0" />
    <path
       style="fill:#000000;fill-opacity:1;stroke-width:0;stroke-miterlimit:4;stroke-dasharray:none;stroke-dashoffset:0"
       id="path3670"
       d="m 471.37086,108.16272 c -6.03174,2.32106 -11.45609,6.16972 -15.77755,10.97913 -1.23434,1.37371 -2.28907,2.89877 -3.4336,4.34815 -0.95036,1.6778 -2.02049,3.29318 -2.85107,5.03338 -3.64575,7.63838 -5.8791,17.60786 -5.92623,26.0555 -0.0121,2.17508 0.28023,4.3412 0.42034,6.5118 0,0 -13.67757,0.73212 -13.67757,0.73212 l 0,0 c -0.1247,-2.7768 -0.43025,-5.55137 -0.37411,-8.3304 0.21036,-10.41325 2.99336,-22.51493 7.6127,-31.863 1.15573,-2.33884 2.63506,-4.50333 3.95259,-6.755 1.51864,-1.9024 2.92851,-3.89697 4.5559,-5.70721 5.58001,-6.20693 12.53646,-11.058358 20.07189,-14.571249 0,0 5.42671,13.566779 5.42671,13.566779 z"
       inkscape:connector-curvature="0" />
    <path
       style="fill:#000000;fill-opacity:1;stroke-width:0;stroke-miterlimit:4;stroke-dasharray:none;stroke-dashoffset:0"
       id="path3672"
       d="m 489.74746,112.29716 c -5.14461,1.71011 -10.57081,3.50239 -14.51691,7.44099 -0.92214,0.92039 -1.65322,2.01412 -2.47984,3.02119 -0.72101,1.38109 -1.55901,2.70717 -2.16304,4.14329 -3.68741,8.76693 -5.2098,18.84777 -3.51529,28.25103 0.48739,2.70465 1.44643,5.3027 2.16964,7.95405 0,0 -12.95789,3.40031 -12.95789,3.40031 l 0,0 c -0.8717,-3.42654 -2.04006,-6.79102 -2.61511,-10.27962 -1.92717,-11.69147 -0.13501,-25.15193 4.7237,-35.98472 1.0329,-2.30291 2.47006,-4.40225 3.70509,-6.60338 1.45846,-1.66237 2.78035,-3.4553 4.37538,-4.98712 4.85806,-4.66551 11.19209,-7.26953 17.33269,-9.724586 0,0 5.94158,13.368566 5.94158,13.368566 z"
       inkscape:connector-curvature="0" />
    <path
       style="fill:#000000;fill-opacity:1;stroke-width:0;stroke-miterlimit:4;stroke-dasharray:none;stroke-dashoffset:0"
       id="path3674"
       d="m 452.90831,99.728662 c -4.96771,-0.440614 -9.81725,0.217508 -14.45462,2.102618 -1.22002,0.49594 -2.37386,1.14124 -3.56079,1.71186 -4.90061,2.73001 -9.64357,6.15834 -12.1829,11.33745 -1.94878,3.97466 -2.35378,7.05876 -3.38784,11.46481 -1.80314,9.25441 -2.03542,18.70773 -0.56463,28.03208 0.47102,2.98615 1.33341,5.89729 2.00011,8.84593 0,0 -13.03303,2.80331 -13.03303,2.80331 l 0,0 c -0.71556,-3.47773 -1.6351,-6.91966 -2.14669,-10.4332 -1.56344,-10.73759 -1.36346,-21.61693 0.47922,-32.30083 1.55211,-6.84795 1.76136,-10.06298 5.03606,-16.19084 3.92033,-7.336016 10.6501,-12.422322 17.79457,-16.311438 1.70007,-0.788834 3.35945,-1.67204 5.1002,-2.366502 6.04692,-2.41238 12.43782,-3.420659 18.92034,-3.340901 0,0 0,14.645653 0,14.645653 z"
       inkscape:connector-curvature="0" />
    <path
       style="fill:#000000;fill-opacity:1;stroke-width:0;stroke-miterlimit:4;stroke-dasharray:none;stroke-dashoffset:0"
       id="path3676"
       d="m 438.61958,110.94129 c -4.53049,-1.02854 -9.19667,-1.45476 -13.83649,-1.45151 -5.54689,-0.0302 -7.41672,1.50549 -11.07738,5.40341 -2.18475,2.90808 -3.40693,4.28338 -5.07484,7.72601 -5.03322,10.38872 -6.02755,22.26153 -7.37368,33.53867 -0.37516,15.54702 -0.56267,7.71585 0.60182,23.49255 0,0 -12.88714,0.95296 -12.88714,0.95296 l 0,0 c -1.28826,-17.39206 -1.04305,-8.75017 -0.77102,-25.92464 1.42522,-13.24364 2.6104,-26.81567 8.39638,-39.03307 2.29749,-4.85128 3.78103,-6.45182 6.86111,-10.58159 1.20566,-1.24169 2.31936,-2.57982 3.61699,-3.72506 4.97136,-4.387552 11.24299,-6.332581 17.80303,-6.236675 5.66881,0.06781 11.33165,0.550205 16.9174,1.546134 0,0 -3.17618,14.292811 -3.17618,14.292811 z"
       inkscape:connector-curvature="0" />
    <path
       style="fill:#000000;fill-opacity:1;stroke-width:0;stroke-miterlimit:4;stroke-dasharray:none;stroke-dashoffset:0"
       id="path3678"
       d="m 415.89144,121.73414 c -4.35255,-1.80005 -9.05984,-2.17272 -13.71074,-2.33944 -7.16972,0.14309 -10.91076,3.10145 -15.7823,8.01235 -1.02539,1.27948 -2.15581,2.48144 -3.07616,3.83844 -4.5099,6.64957 -8.08629,16.15777 -9.55781,24.006 -0.45891,2.44757 -0.5703,4.94768 -0.85544,7.42151 0.0818,9.98272 -0.29119,5.09306 1.05834,14.67347 0,0 -13.50105,1.73763 -13.50105,1.73763 l 0,0 c -1.40754,-11.83634 -1.05581,-5.83675 -1.01042,-18.00133 0.37451,-3.10676 0.54587,-6.24481 1.12353,-9.32029 1.7729,-9.43899 6.40985,-21.24257 11.82951,-29.21303 1.22443,-1.80073 2.70688,-3.41179 4.06032,-5.11768 1.39421,-1.37591 2.70056,-2.84693 4.18263,-4.12772 6.23937,-5.392 13.82293,-8.17782 22.04351,-8.22985 6.72083,0.24202 13.4487,1.05227 19.74629,3.55952 0,0 -6.55021,13.10042 -6.55021,13.10042 z"
       inkscape:connector-curvature="0" />
    <path
       style="fill:#000000;fill-opacity:1;stroke-width:0;stroke-miterlimit:4;stroke-dasharray:none;stroke-dashoffset:0"
       id="path3680"
       d="m 490.36574,127.99005 c 15.86201,-19.78217 34.26192,-37.439857 53.72012,-53.655799 6.32619,-5.27207 12.91496,-10.220817 19.37245,-15.331226 28.53386,-20.973968 59.22753,-39.383276 92.63819,-51.4685016 4.06791,-1.4714356 8.24214,-2.6304525 12.3632,-3.9456787 10.94391,-2.63820135 24.52791,-6.1647761 31.14233,6.4000499 3.02925,5.7543844 1.8465,10.6041184 1.41162,16.6217074 0,0 -13.78358,-1.28127 -13.78358,-1.28127 l 0,0 c 0.2007,-1.548713 0.40139,-3.097426 0.60208,-4.646139 0.0493,-0.913198 0.0426,-1.831131 0.14776,-2.739594 0.0596,-0.515365 0.58668,-1.058718 0.34486,-1.517721 -2.21016,-4.195312 -13.75329,-0.608035 -16.17388,-0.444952 -3.87826,1.067509 -7.80669,1.967137 -11.63478,3.202528 -32.71089,10.556363 -62.62174,28.124941 -90.10533,48.527027 -6.24315,5.030412 -12.64138,9.8742 -18.72944,15.091237 -16.89414,14.4771 -32.83313,30.436872 -46.03363,48.398812 -1.09832,1.49449 -2.0567,3.08693 -3.08506,4.63039 0,0 -12.19691,-7.84087 -12.19691,-7.84087 z"
       inkscape:connector-curvature="0" />
    <path
       style="fill:#000000;fill-opacity:1;stroke-width:0;stroke-miterlimit:4;stroke-dasharray:none;stroke-dashoffset:0"
       id="path3682"
       d="m 574.7481,99.521134 c 0.007,-1.398362 -0.29466,-2.833036 0.022,-4.195088 1.67423,-7.20092 7.74059,-11.403481 13.6688,-15.003513 7.36645,-4.473436 9.68835,-5.096661 17.82323,-8.559571 14.02332,-4.886003 29.01704,-7.343302 43.60458,-3.227897 9.2686,2.614839 11.21265,4.685552 19.18858,9.79371 9.09232,6.945999 16.30184,15.700235 22.85787,24.969865 0,0 -11.48876,7.82209 -11.48876,7.82209 l 0,0 c -5.23758,-8.04907 -11.13803,-15.586543 -18.72121,-21.605894 -5.86873,-3.989121 -7.46375,-5.702591 -14.33728,-7.857797 -11.94388,-3.745022 -24.27821,-1.701314 -35.82003,2.356013 -7.92805,3.471258 -8.22437,3.237345 -15.2815,7.65136 -11.58544,7.246341 -0.29382,0.392041 -6.47204,4.809307 -0.63571,0.454519 -0.61142,-0.04683 -0.82194,-0.508166 0,0 -14.22232,3.555581 -14.22232,3.555581 z"
       inkscape:connector-curvature="0" />
    <path
       style="fill:#000000;fill-opacity:1;stroke-width:0;stroke-miterlimit:4;stroke-dasharray:none;stroke-dashoffset:0"
       id="path3684"
       d="m 578.7744,124.92515 c -3.15209,-3.29223 -6.28759,-7.13288 -6.58538,-11.91382 -0.0869,-1.39473 0.27176,-2.78163 0.40764,-4.17245 0.57882,-1.40176 0.88984,-2.94702 1.73647,-4.20527 4.84531,-7.201054 15.97204,-11.650556 24.10646,-13.406071 2.99489,-0.646337 6.06856,-0.849136 9.10284,-1.273704 3.40336,0.159036 6.83579,0.0056 10.21008,0.477107 11.09438,1.550257 21.22706,6.247124 30.27312,12.726858 7.79191,5.58138 9.74815,8.19786 16.36171,15.00743 8.50781,10.61367 4.60954,5.21831 11.75886,16.13959 0,0 -11.34655,7.26466 -11.34655,7.26466 l 0,0 c -5.97962,-9.58576 -2.6784,-4.83356 -9.9779,-14.20475 -2.18014,-2.29288 -4.2297,-4.71742 -6.54042,-6.87865 -8.70956,-8.14611 -19.26333,-14.75634 -31.22464,-16.60588 -2.53416,-0.39185 -5.11982,-0.29897 -7.67974,-0.44846 -2.29107,0.30029 -4.61588,0.40726 -6.87321,0.90086 -5.56094,1.21598 -10.90095,3.69571 -15.5991,6.87242 -0.0915,-0.0159 -0.20418,0.0129 -0.27447,-0.0478 -0.19492,-0.16832 -0.33519,-0.81687 -0.48102,-0.6046 -0.17612,0.25637 1.66328,2.78621 2.0157,3.10395 0,0 -9.39045,11.26855 -9.39045,11.26855 z"
       inkscape:connector-curvature="0" />
    <path
       style="fill:#000000;fill-opacity:1;stroke-width:0;stroke-miterlimit:4;stroke-dasharray:none;stroke-dashoffset:0"
       id="path3686"
       d="m 574.91138,120.0193 c 8.84655,0.35683 17.72682,0.38382 26.40208,2.45549 9.39171,2.24275 11.63689,3.73871 20.43701,7.66776 12.59108,7.15139 24.73477,15.7422 33.56446,27.40079 1.04344,1.37774 1.9239,2.87165 2.88585,4.30748 0.59344,1.4032 1.18688,2.8064 1.78031,4.20961 0,0 -13.53818,4.79515 -13.53818,4.79515 l 0,0 c -0.0785,-0.49404 -0.15711,-0.98808 -0.23566,-1.48212 -0.58881,-1.03658 -1.09584,-2.12408 -1.76642,-3.10973 -7.03349,-10.33821 -17.54409,-17.73078 -28.14169,-24.00897 -7.20814,-3.27481 -9.39675,-4.71453 -17.09933,-6.48381 -7.98726,-1.83467 -16.17698,-1.57089 -24.28843,-1.12508 0,0 0,-14.62657 0,-14.62657 z"
       inkscape:connector-curvature="0" />
    <path
       style="fill:#000000;fill-opacity:1;stroke-width:0;stroke-miterlimit:4;stroke-dasharray:none;stroke-dashoffset:0"
       id="path3688"
       d="m 605.29355,113.56662 c -5.49924,0.22598 -10.25554,3.54274 -14.77226,6.37225 -9.11919,6.08465 -14.73642,15.37397 -18.56563,25.47519 -1.19485,3.15191 -2.08705,6.41038 -3.13058,9.61558 -4.57558,17.40865 -6.95359,35.58675 -5.19177,53.58504 0.29699,3.03399 0.90759,6.02905 1.36139,9.04357 1.79536,6.24763 1.7668,7.96179 5.11006,13.27774 0.9665,1.53679 2.24421,2.85427 3.36632,4.28141 0,0 -11.14826,8.14462 -11.14826,8.14462 l 0,0 c -1.51538,-2.18303 -3.24795,-4.23032 -4.54614,-6.54908 -3.98836,-7.12384 -3.98873,-9.3762 -6.00159,-17.31705 -0.44175,-3.42784 -1.04154,-6.83899 -1.32525,-10.28352 -1.61152,-19.56551 0.87466,-39.28778 5.81212,-58.21709 1.1503,-3.62645 2.13599,-7.30929 3.4509,-10.87935 4.93781,-13.40635 11.45048,-23.81732 23.21492,-32.07852 6.30333,-4.08347 12.89711,-8.216603 20.54698,-9.021109 0,0 1.81879,14.550319 1.81879,14.550319 z"
       inkscape:connector-curvature="0" />
    <path
       style="fill:#000000;fill-opacity:1;stroke-width:0;stroke-miterlimit:4;stroke-dasharray:none;stroke-dashoffset:0"
       id="path3690"
       d="m 561.02107,139.02041 c -0.0225,-0.24648 -0.0234,-0.49588 -0.0674,-0.73945 -0.26819,-1.48616 -0.23449,-0.0471 -0.30976,0.0825 -0.0393,0.0677 -0.1526,0.0346 -0.22891,0.0519 -0.60976,0.47321 0.4102,-0.24971 -1.33437,0.0878 -0.12232,0.0237 -0.0847,0.25616 -0.19095,0.32132 -0.40243,0.24689 -0.88296,0.34607 -1.28916,0.58672 -1.62073,0.96016 -1.9306,1.64649 -3.32371,3.22935 -0.96555,1.4423 -2.04456,2.81478 -2.89664,4.32688 -7.77996,13.80635 -9.58595,29.98412 -11.44128,45.42648 -1.2721,11.14195 -1.06392,22.36188 0.10702,33.49777 0.31254,2.97232 0.80714,5.92268 1.21071,8.88402 0,0 -13.31472,1.63174 -13.31472,1.63174 l 0,0 c -1.66232,-15.13403 -2.70289,-30.34718 -0.99756,-45.54793 2.03724,-17.54221 4.1651,-35.83709 12.89458,-51.55851 1.22265,-2.20193 2.77676,-4.20274 4.16514,-6.30411 1.53763,-1.5908 2.91605,-3.35264 4.61288,-4.77241 1.12872,-0.94442 2.466,-1.6232 3.79254,-2.26056 4.68118,-2.24917 9.60755,-2.35377 14.43609,-0.61679 0.92643,0.51071 1.91805,0.91784 2.7793,1.53213 4.0341,2.8774 5.86517,7.31972 6.06091,12.14119 0,0 -14.66474,0 -14.66474,0 z"
       inkscape:connector-curvature="0" />
    <path
       style="fill:#000000;fill-opacity:1;stroke-width:0;stroke-miterlimit:4;stroke-dasharray:none;stroke-dashoffset:0"
       id="path3692"
       d="m 530.29711,142.07366 c -4.9796,-0.13403 -10.02357,-0.51101 -14.93953,0.54553 -1.22155,0.26254 -2.4079,0.66816 -3.61186,1.00223 -2.85787,1.23828 -4.3273,1.59579 -6.67887,3.69551 -5.11225,4.56473 -6.9405,11.71172 -8.69994,17.99389 -2.71844,12.32659 -3.08831,24.97615 -3.68352,37.53179 -1.03651,21.86466 -0.26552,3.2721 -1.12398,25.30454 -0.20713,4.0605 -0.41427,8.12099 -0.62141,12.18148 0,0 -12.97578,-0.7168 -12.97578,-0.7168 l 0,0 c 0.2373,-3.98457 0.47459,-7.96914 0.71188,-11.9537 0.93769,-25.38203 0.0331,-0.20615 0.86088,-25.3379 0.44828,-13.60919 0.85909,-27.30543 3.66066,-40.68183 1.8376,-6.61366 2.17751,-9.36022 5.41767,-15.33785 4.42154,-8.15712 10.70455,-13.29833 19.40884,-16.30399 1.75207,-0.47378 3.48075,-1.04456 5.25621,-1.42134 5.6036,-1.18916 11.3364,-0.94161 17.01875,-1.1663 0,0 0,14.66474 0,14.66474 z"
       inkscape:connector-curvature="0" />
    <path
       style="fill:#000000;fill-opacity:1;stroke-width:0;stroke-miterlimit:4;stroke-dasharray:none;stroke-dashoffset:0"
       id="path3694"
       d="m 482.28992,168.50469 c -7.06397,-0.38566 -14.09648,1.30923 -20.30146,4.71082 -1.7917,0.98221 -3.44273,2.20165 -5.1641,3.30248 -1.55063,1.32956 -3.22047,2.53156 -4.65189,3.9887 -4.10864,4.18247 -7.64214,9.80023 -9.67285,15.29094 -1.96805,5.32127 -2.54775,9.84694 -3.60136,15.44652 -1.63443,13.46785 -0.96822,27.03345 2.33031,40.20189 0.46959,1.8747 1.08954,3.70849 1.63432,5.56274 0,0 -13.37142,3.69058 -13.37142,3.69058 l 0,0 c -0.56839,-2.17887 -1.2147,-4.33889 -1.70516,-6.53662 -3.32792,-14.91213 -4.00343,-30.20199 -2.09086,-45.36322 1.27326,-6.97454 1.92049,-12.31785 4.4295,-18.99009 2.67155,-7.10447 7.78184,-14.55307 13.20279,-19.83442 1.90886,-1.85969 4.10834,-3.39564 6.16251,-5.09346 2.25421,-1.40486 4.42333,-2.95649 6.76263,-4.21459 8.0188,-4.31257 16.95081,-6.59741 26.03704,-6.76976 0,0 0,14.60749 0,14.60749 z"
       inkscape:connector-curvature="0" />
    <path
       style="fill:#000000;fill-opacity:1;stroke-width:0;stroke-miterlimit:4;stroke-dasharray:none;stroke-dashoffset:0"
       id="path3696"
       d="m 466.8717,172.67075 c -5.00885,-2.50178 -10.47401,-3.5073 -15.87186,-4.76615 -5.54581,-1.09297 -11.24991,-2.76258 -16.90985,-1.69804 -6.53506,4.47159 -8.57232,13.37665 -10.92844,20.42076 -2.88497,11.09343 -5.55091,22.51716 -5.12106,34.06533 0.0487,1.30869 0.23364,2.60875 0.35046,3.91312 0,0 -14.11423,0.85228 -14.11423,0.85228 l 0,0 c -0.19123,-5.05629 -0.34923,-5.89363 0.0379,-11.24057 0.78061,-10.78051 3.17944,-21.37587 5.85122,-31.8208 3.30999,-10.42111 6.77603,-23.06298 17.22619,-28.68697 1.4626,-0.78713 3.11645,-1.15014 4.67467,-1.72521 1.33696,-0.16074 2.66609,-0.41251 4.01087,-0.48222 6.12847,-0.31771 12.19344,1.33117 18.14928,2.49002 6.29354,1.45123 12.61913,2.74442 18.58639,5.30989 0,0 -5.94158,13.36856 -5.94158,13.36856 z"
       inkscape:connector-curvature="0" />
    <path
       style="fill:#000000;fill-opacity:1;stroke-width:0;stroke-miterlimit:4;stroke-dasharray:none;stroke-dashoffset:0"
       id="path3698"
       d="m 505.64809,157.77096 c -8.83336,-6.18522 -18.11274,-11.71914 -27.86869,-16.32739 -3.07839,-1.4541 -6.2208,-2.76862 -9.3312,-4.15293 -10.35332,-4.39387 -21.17382,-7.52683 -32.19646,-9.71217 -7.80939,-1.54828 -14.71428,-2.6072 -22.68178,-2.75819 -3.55295,-0.0673 -7.10174,0.27792 -10.65261,0.41689 -13.35192,1.34591 -26.11172,5.54443 -37.66708,12.36304 -7.0286,4.14745 -9.49582,6.40518 -15.90963,11.40765 -5.70011,5.26739 -7.68719,6.79943 -12.68605,12.55957 -1.59306,1.83568 -3.01911,3.80989 -4.52867,5.71484 0,0 -10.56176,-8.63178 -10.56176,-8.63178 l 0,0 c 6.04562,-7.20135 12.28505,-14.21046 19.65397,-20.12391 7.24589,-5.58275 9.94678,-8.03845 17.91839,-12.65869 13.32574,-7.72342 28.01428,-12.36743 43.35843,-13.72674 4.02813,-0.10549 8.05645,-0.42912 12.08438,-0.31648 8.53537,0.2387 16.22079,1.40335 24.57831,3.06446 11.82283,2.34987 23.43671,5.69075 34.59274,10.27639 3.30685,1.42189 6.64163,2.78049 9.92055,4.26565 10.39537,4.70854 20.2766,10.36208 30.04371,16.23996 0,0 -8.06655,12.09983 -8.06655,12.09983 z"
       inkscape:connector-curvature="0" />
    <path
       style="fill:#000000;fill-opacity:1;stroke-width:0;stroke-miterlimit:4;stroke-dasharray:none;stroke-dashoffset:0"
       id="path3700"
       d="m 317.15734,130.01452 c -2.12605,-1.56852 -4.66591,-3.09728 -7.39343,-2.96874 -0.14127,0.10833 -0.33427,0.17112 -0.42381,0.32499 -0.0873,0.15002 -0.008,0.35275 -0.0659,0.51653 -0.15806,0.4504 -0.39746,0.86838 -0.57552,1.31126 -0.44218,1.09984 -0.91508,2.18972 -1.28481,3.31598 -2.24846,6.84906 -2.01226,7.0574 -3.55365,14.84427 -2.95812,19.22295 -3.75012,38.776 -2.12119,58.16601 0.3072,3.65677 0.82564,7.29272 1.23845,10.93908 1.19889,8.91051 2.61369,17.84893 5.48179,26.40162 1.04347,3.11161 2.45701,6.6673 4.42882,9.39118 0.56817,0.78487 1.35539,1.38503 2.03308,2.07755 0.39736,0.0277 0.79472,0.0555 1.19207,0.0833 0,0 -7.00406,12.44267 -7.00406,12.44267 l 0,0 c -1.67939,-1.14126 -3.35879,-2.28253 -5.03818,-3.42379 -1.18392,-1.52661 -2.52878,-2.94102 -3.55177,-4.57983 -2.26629,-3.63054 -3.96438,-8.38599 -5.16915,-12.41867 -2.78182,-9.31145 -4.25406,-18.94132 -5.40294,-28.56945 -0.39843,-3.87974 -0.89743,-7.75046 -1.19529,-11.63922 -1.56449,-20.42543 -0.70271,-40.99343 1.93199,-61.29119 1.88222,-10.98411 3.32294,-27.70593 16.03673,-31.79122 1.34289,-0.43151 2.79913,-0.35087 4.1987,-0.52631 1.20239,0.13735 2.41812,0.18683 3.60719,0.41206 4.48004,0.84859 8.50867,3.25 12.15942,5.86532 0,0 -9.52854,11.11663 -9.52854,11.11663 z"
       inkscape:connector-curvature="0" />
    <path
       style="fill:#000000;fill-opacity:1;stroke-width:0;stroke-miterlimit:4;stroke-dasharray:none;stroke-dashoffset:0"
       id="path3702"
       d="m 354.75941,199.56277 c -0.35912,0.32452 -0.79176,0.58276 -1.07735,0.97355 -0.29506,0.40374 -0.42608,0.90491 -0.62934,1.3618 -0.50681,1.13923 -1.08202,2.25191 -1.50079,3.42636 -2.12408,5.95701 -2.95469,12.10702 -3.78093,18.34041 -0.71026,7.33174 -0.22801,14.71088 1.61289,21.85631 0.59624,2.31427 1.49452,4.54002 2.24178,6.81004 0,0 -12.96993,4.12585 -12.96993,4.12585 l 0,0 c -0.871,-2.81713 -1.91435,-5.58664 -2.61301,-8.45137 -2.08224,-8.5378 -2.71355,-17.361 -1.83742,-26.09993 1.3768,-10.8277 2.5826,-22.97888 9.55298,-31.90792 0.63272,-0.81052 1.48345,-1.42424 2.22518,-2.13636 0,0 8.77594,11.70126 8.77594,11.70126 z"
       inkscape:connector-curvature="0" />
    <path
       style="fill:#000000;fill-opacity:1;stroke-width:0;stroke-miterlimit:4;stroke-dasharray:none;stroke-dashoffset:0"
       id="path3704"
       d="m 416.25838,195.20749 c -1.12704,4.50963 -1.3599,9.20569 -1.58743,13.8261 -0.30055,6.10344 -0.45761,9.53753 0.0889,15.62419 0.22076,2.45869 0.6622,4.89255 0.99329,7.33883 1.15605,5.31573 2.13713,11.01138 5.20601,15.65722 0.55503,0.84024 1.35729,1.48796 2.03593,2.23194 0,0 -11.1237,8.71476 -11.1237,8.71476 l 0,0 c -1.19365,-1.64587 -2.56585,-3.176 -3.58097,-4.9376 -3.49678,-6.06819 -4.76027,-13.15581 -6.04285,-19.92315 -0.34814,-2.8163 -0.80554,-5.62123 -1.04443,-8.44889 -0.57492,-6.80515 -0.42766,-10.18917 -0.25503,-16.92593 0.10468,-4.08541 0.24528,-9.4377 0.67212,-13.58964 0.11773,-1.14524 0.36854,-2.27286 0.5528,-3.40929 0,0 14.08538,3.84146 14.08538,3.84146 z"
       inkscape:connector-curvature="0" />
    <path
       style="fill:#000000;fill-opacity:1;stroke-width:0;stroke-miterlimit:4;stroke-dasharray:none;stroke-dashoffset:0"
       id="path3720"
       d="m 706.59238,42.604392 c 12.5511,6.378114 23.30661,15.710423 33.75369,25.017654 7.80954,7.117856 14.41516,15.301859 18.26554,25.223878 2.37232,6.113212 2.26087,7.364646 3.37409,13.787276 0.93942,10.09612 -0.95335,20.09199 -2.9053,29.94772 0,0 -13.83801,-2.89848 -13.83801,-2.89848 l 0,0 c 1.80673,-8.1494 3.58207,-16.42246 3.0336,-24.82511 -0.25246,-1.71606 -0.38136,-3.45489 -0.75738,-5.14816 -2.30578,-10.38334 -8.48622,-18.85222 -16.20391,-25.958437 -9.01588,-8.046557 -18.31634,-16.109601 -29.33166,-21.31832 0,0 4.60934,-13.828021 4.60934,-13.828021 z"
       inkscape:connector-curvature="0" />
    <path
       style="fill:#000000;fill-opacity:1;stroke-width:0;stroke-miterlimit:4;stroke-dasharray:none;stroke-dashoffset:0"
       id="path3731"
       d="m 703.15306,111.96443 c -8.98191,-2.3207 -9.69637,-1.90614 1.49031,-14.498038 0.59569,-0.670516 1.30783,1.227735 1.96174,1.841602 4.60077,5.522826 8.76783,11.443196 11.99745,17.881576 0.90728,1.80869 1.67928,3.68212 2.51891,5.52319 5.30228,11.58902 7.64583,24.05421 8.98304,36.63511 0.34329,7.61381 0.50702,15.3895 -1.82046,22.75084 -1.45479,4.60118 -2.48249,5.98245 -4.77951,10.13521 -2.74413,4.50944 -6.41497,8.20379 -10.18837,11.82737 0,0 -9.69209,-10.35211 -9.69209,-10.35211 l 0,0 c 2.82462,-2.55323 5.5332,-5.19282 7.59565,-8.4339 1.43448,-2.44769 2.44525,-3.89257 3.383,-6.57858 2.00882,-5.75383 1.77359,-11.90727 1.62492,-17.90047 -1.13415,-11.09408 -3.01962,-22.12025 -7.84092,-32.29208 -0.67562,-1.49086 -1.28529,-3.0134 -2.02687,-4.47257 -2.64214,-5.19886 -6.09338,-9.9527 -9.98206,-14.28244 0.0163,-0.0107 0.0326,-0.0214 0.0489,-0.0321 2.28033,-4.35469 4.56065,-8.70937 6.84097,-13.064058 0.15848,0.100399 0.24038,0.308508 0.4127,0.38268 0.87668,0.377356 2.16506,0.543782 3.02831,0.706443 0,0 -3.55558,14.222325 -3.55558,14.222325 z"
       inkscape:connector-curvature="0" />
    <path
       style="fill:#000000;fill-opacity:1;stroke-width:0;stroke-miterlimit:4;stroke-dasharray:none;stroke-dashoffset:0"
       id="path3733"
       d="m 675.12735,131.82492 c 6.17473,1.39041 12.47198,3.14041 17.76215,6.77034 1.21334,0.83255 2.29344,1.84432 3.44016,2.76648 0.99351,1.20495 2.13042,2.30479 2.98054,3.61485 4.12291,6.3535 4.76272,14.08476 3.39542,21.37896 -0.41071,2.19104 -1.14765,4.30816 -1.72148,6.46224 -1.86183,5.66821 -4.59005,10.93274 -7.45244,16.13708 0,0 -12.26164,-6.92824 -12.26164,-6.92824 l 0,0 c 2.41292,-4.13266 4.68354,-8.33201 6.23981,-12.88139 1.62159,-5.75968 3.11189,-11.49257 -0.44827,-16.85268 -3.85158,-3.65664 -8.27435,-4.96525 -13.38956,-5.91461 0,0 1.45531,-14.55303 1.45531,-14.55303 z"
       inkscape:connector-curvature="0" />
    <path
       style="fill:#000000;fill-opacity:1;stroke-width:0;stroke-miterlimit:4;stroke-dasharray:none;stroke-dashoffset:0"
       id="path3739"
       d="m 622.18393,150.5801 c 10.59264,7.95273 21.67939,15.20895 32.05115,23.45138 5.98691,5.08934 10.9341,10.24646 11.06362,18.61788 0.0536,3.4675 -0.91849,5.9347 -1.87974,9.12349 -0.54107,1.20043 -1.08214,2.40086 -1.62321,3.60129 0,0 -12.98655,-6.13014 -12.98655,-6.13014 l 0,0 c 0.32118,-0.62622 0.64236,-1.25244 0.96354,-1.87867 0.32778,-0.90116 1.62991,-3.709 1.58674,-4.75366 -0.13855,-3.35319 -3.97688,-5.65957 -5.87788,-7.83158 -9.93069,-8.30965 -20.72158,-15.61479 -31.81469,-22.27615 0,0 8.51702,-11.92384 8.51702,-11.92384 z"
       inkscape:connector-curvature="0" />
    <path
       style="fill:#000000;fill-opacity:1;stroke-width:0;stroke-miterlimit:4;stroke-dasharray:none;stroke-dashoffset:0"
       id="path3741"
       d="m 607.16164,174.81444 c 2.90626,6.55115 7.15574,12.31235 11.57679,17.89964 4.86574,5.79638 10.49903,10.86972 15.82866,16.2223 0,0 -10.1934,9.92852 -10.1934,9.92852 l 0,0 c -5.52308,-5.81215 -11.48095,-11.21761 -16.63971,-17.37333 -5.09453,-6.3419 -9.86265,-12.91646 -13.67276,-20.12692 0,0 13.10042,-6.55021 13.10042,-6.55021 z"
       inkscape:connector-curvature="0" />
    <path
       style="fill:#000000;fill-opacity:1;stroke-width:0;stroke-miterlimit:4;stroke-dasharray:none;stroke-dashoffset:0"
       id="path3743"
       d="m 593.33877,163.64691 c -5.01515,8.73088 -7.28692,18.83205 -9.4344,28.58379 -1.29475,6.63953 -2.0344,13.36995 -2.52147,20.112 -0.35569,4.92352 -0.57361,7.51731 -0.21778,12.34388 0.12423,1.6851 0.41726,3.35349 0.62589,5.03024 2.0848,4.69546 0.74866,2.49999 4.0401,6.56703 0,0 -11.32152,8.14202 -11.32152,8.14202 l 0,0 c -5.61839,-8.32049 -3.44983,-3.91076 -6.59393,-13.18544 -0.20587,-2.09806 -0.50778,-4.18891 -0.61761,-6.29419 -0.62294,-11.9404 1.29909,-23.9351 3.16278,-35.67885 2.60611,-11.81271 5.34436,-23.97396 11.35354,-34.5839 0,0 11.5244,8.96342 11.5244,8.96342 z"
       inkscape:connector-curvature="0" />
    <path
       style="fill:#000000;fill-opacity:1;stroke-width:0;stroke-miterlimit:4;stroke-dasharray:none;stroke-dashoffset:0"
       id="path3745"
       d="m 740.78737,112.8131 c 0.81343,1.53476 4.81343,6.3376 5.04868,7.48303 2.08103,10.13227 1.68851,19.70183 1.79643,29.9522 0,0 -12.61192,0.31728 -12.61192,0.31728 l 0,0 c -0.19217,-4.72861 -0.37288,-9.4577 -0.57651,-14.18583 -0.11511,-2.67282 0.19908,-5.40497 -0.37971,-8.01691 -0.31263,-1.41079 -3.62593,-4.60137 -4.54552,-6.15932 0,0 11.26855,-9.39045 11.26855,-9.39045 z"
       inkscape:connector-curvature="0" />
    <path
       style="fill:#000000;fill-opacity:1;stroke-width:0;stroke-miterlimit:4;stroke-dasharray:none;stroke-dashoffset:0"
       id="path3747"
       d="m 778.79987,134.61795 c -0.30435,0.69727 -0.6517,1.37732 -0.91306,2.09182 -0.89696,2.45208 -1.59145,4.97366 -2.41391,7.45171 -1.7461,5.26094 -3.58586,10.47422 -5.51234,15.67164 -3.23433,7.7364 -6.32339,15.89744 -11.7157,22.46177 -0.94133,1.14592 -2.03115,2.16135 -3.04672,3.24203 -4.08943,3.56818 -1.88866,1.8779 -6.63444,5.02868 0,0 -7.71999,-12.04803 -7.71999,-12.04803 l 0,0 c 2.83134,-1.69685 1.42944,-0.7097 4.16688,-3.01586 0.59007,-0.54935 1.23569,-1.04452 1.77022,-1.64805 4.76086,-5.37534 7.2623,-12.40465 10.06766,-18.87734 1.84491,-4.98441 3.5857,-9.97253 5.14563,-15.05441 0.85758,-2.7938 1.58201,-5.62743 2.4458,-8.41931 0.29509,-0.95376 0.66094,-1.88416 0.99141,-2.82624 0,0 13.36856,5.94159 13.36856,5.94159 z"
       inkscape:connector-curvature="0" />
    <path
       style="fill:#000000;fill-opacity:1;stroke-width:0;stroke-miterlimit:4;stroke-dasharray:none;stroke-dashoffset:0"
       id="path3797"
       d="m 324.35513,259.93994 c 0.54478,1.32189 1.16048,2.61673 1.63434,3.96566 2.92792,8.33491 4.81842,17.03504 6.82602,25.61573 3.94126,16.84539 2.22566,9.2225 5.96961,26.85716 4.86772,21.92276 8.79538,44.03865 13.35817,66.02361 1.44021,5.81471 0.67085,3.21391 2.18772,7.837 0,0 -13.71432,3.9219 -13.71432,3.9219 l 0,0 c -1.45088,-5.72106 -0.7538,-2.6438 -2.02038,-9.24757 -3.60699,-22.02596 -7.21835,-44.06412 -12.19861,-65.83318 -3.12549,-13.95008 -2.74312,-12.86703 -6.29059,-26.33709 -2.23227,-8.47609 -4.52139,-17.04321 -8.16443,-25.04543 0,0 12.41247,-7.75779 12.41247,-7.75779 z"
       inkscape:connector-curvature="0" />
    <path
       style="fill:#000000;fill-opacity:1;stroke-width:0;stroke-miterlimit:4;stroke-dasharray:none;stroke-dashoffset:0"
       id="path3823"
       d="m 355.04833,386.9463 c 1.58868,2.74194 2.21844,3.97512 4.3798,6.78498 12.67267,16.47505 28.03959,30.64625 43.18641,44.7664 21.49749,19.23824 43.99537,38.26094 69.26619,52.42945 3.08738,1.73099 6.29168,3.24467 9.43752,4.86701 10.20553,4.9121 21.18484,7.89032 32.52805,7.87777 4.67612,-0.1395 9.30889,-0.82922 13.96466,-1.22898 0,0 1.16153,14.50592 1.16153,14.50592 l 0,0 c -5.15145,0.37882 -10.29441,0.96663 -15.46711,0.94805 -13.71687,-0.58503 -26.25087,-4.03432 -38.43253,-10.5192 -9.57639,-5.37688 -11.99447,-6.492 -21.54661,-12.97983 -20.844,-14.15729 -40.06282,-30.54325 -58.88091,-47.2454 -13.75421,-12.5123 -15.72227,-14.06768 -28.69804,-26.75415 -5.17054,-5.05527 -12.74168,-12.6062 -17.76278,-18.37327 -2.30326,-2.64545 -3.65015,-4.638 -5.54865,-7.32096 0,0 12.41247,-7.75779 12.41247,-7.75779 z"
       inkscape:connector-curvature="0" />
    <path
       style="fill:#000000;fill-opacity:1;stroke-width:0;stroke-miterlimit:4;stroke-dasharray:none;stroke-dashoffset:0"
       id="path3827"
       d="m 543.03319,502.08721 c 9.72976,0.55512 19.53013,0.55395 29.03186,-1.93892 3.38265,-0.88747 6.66134,-2.1322 9.99202,-3.1983 10.31221,-4.77829 13.9751,-5.95283 23.68381,-12.85489 16.70278,-11.87424 30.76693,-27.07821 43.14907,-43.30436 5.11978,-6.7092 9.73966,-13.78553 14.60949,-20.67829 20.06294,-31.89499 36.41281,-65.97189 50.37001,-100.93272 6.91752,-17.32745 12.62723,-33.80663 18.89444,-51.35378 9.81946,-28.24547 18.98053,-56.79955 25.2699,-86.06642 2.80073,-13.03291 3.24064,-17.06755 5.17325,-29.71379 1.42347,-8.89652 1.91749,-17.85927 2.02168,-26.84844 0,0 13.74225,0.49915 13.74225,0.49915 l 0,0 c -0.55953,9.5425 -1.48436,19.0437 -3.22775,28.45754 -2.25715,12.32474 -3.12098,17.85423 -6.10965,30.45663 -6.99849,29.51074 -16.71983,58.28219 -26.73782,86.87756 -5.84665,15.98614 -13.03978,36.03435 -19.36998,51.75986 -14.33482,35.61063 -30.93027,70.39116 -51.05577,103.11647 -4.94966,7.19641 -9.63058,14.58525 -14.84898,21.58924 -16.12324,21.64018 -35.20816,42.10618 -58.94464,55.45441 -4.02961,2.26605 -8.33652,3.99917 -12.50478,5.99876 -3.80231,1.28993 -7.54213,2.78131 -11.40693,3.86978 -10.3827,2.92417 -21.0404,3.1924 -31.73148,3.45616 0,0 0,-14.64565 0,-14.64565 z"
       inkscape:connector-curvature="0" />
    <path
       style="fill:#000000;fill-opacity:1;stroke-width:0;stroke-miterlimit:4;stroke-dasharray:none;stroke-dashoffset:0"
       id="path3829"
       d="m 525.97241,503.13605 c 3.2257,0.0915 6.45353,0.0522 9.68002,0.0328 2.37501,-0.0161 4.75006,-0.0237 7.12512,-0.0275 2.09264,-0.0451 4.16751,-0.009 6.25148,0.17794 0,0 -1.40977,14.55137 -1.40977,14.55137 l 0,0 c -1.60241,-0.19442 -3.23128,-0.007 -4.84171,-0.0753 -2.37506,-0.004 -4.75011,-0.0114 -7.12512,-0.0275 -3.22649,-0.0193 -6.45432,-0.0587 -9.68002,0.0328 0,0 0,-14.66474 0,-14.66474 z"
       inkscape:connector-curvature="0" />
    <path
       style="fill:#000000;fill-opacity:1;stroke-width:0;stroke-miterlimit:4;stroke-dasharray:none;stroke-dashoffset:0"
       id="path3831"
       d="m 458.36229,412.12437 c 0.79302,-0.0573 1.59687,-0.0294 2.37905,-0.17204 8.23635,-1.50225 16.24046,-4.6175 24.06906,-7.4563 11.59371,-4.20411 12.10968,-4.49659 23.73823,-9.06301 17.69043,-7.22147 35.39856,-14.40372 53.44906,-20.68271 1.51905,-0.47547 3.03809,-0.95094 4.55714,-1.42641 0,0 3.9569,13.5656 3.9569,13.5656 l 0,0 c -1.39557,0.37469 -2.79115,0.74938 -4.18673,1.12406 -18.02264,5.47905 -35.62729,12.19713 -53.04185,19.36388 -13.77837,5.51166 -10.34757,4.18745 -23.92622,9.43298 -8.81114,3.40381 -17.71171,7.17998 -26.93641,9.37204 -1.32982,0.31601 -2.70549,0.39171 -4.05823,0.58757 0,0 0,-14.64566 0,-14.64566 z"
       inkscape:connector-curvature="0" />
    <path
       style="fill:#000000;fill-opacity:1;stroke-width:0;stroke-miterlimit:4;stroke-dasharray:none;stroke-dashoffset:0"
       id="path3833"
       d="m 469.82335,420.47859 c 11.88492,10.48565 24.49322,20.11944 36.8235,30.07188 5.65729,4.38778 11.22989,8.88126 16.68824,13.5137 0,0 -9.45547,10.69529 -9.45547,10.69529 l 0,0 c -5.12853,-4.73404 -10.36935,-9.34587 -15.80077,-13.732 -11.84296,-9.81445 -23.96643,-19.28135 -36.36021,-28.3918 0,0 8.10471,-12.15707 8.10471,-12.15707 z"
       inkscape:connector-curvature="0" />
    <path
       style="fill:#000000;fill-opacity:1;stroke-width:0;stroke-miterlimit:4;stroke-dasharray:none;stroke-dashoffset:0"
       id="path3835"
       d="m 515.21637,465.10094 c 17.01486,-0.30818 33.57582,-4.93292 49.88091,-9.38323 13.85969,-3.80201 27.20904,-9.10233 40.09221,-15.4245 5.26591,-3.02588 10.68368,-4.27987 16.66125,-4.7795 0,0 1.10306,14.45574 1.10306,14.45574 l 0,0 c -4.17283,0.27561 -8.05719,1.17582 -11.79415,3.17381 -13.83477,6.08916 -28.00721,11.36463 -42.62532,15.27966 -17.52948,4.70094 -35.1851,9.56072 -53.31796,11.20917 0,0 0,-14.53115 0,-14.53115 z"
       inkscape:connector-curvature="0" />
    <path
       style="fill:#000000;fill-opacity:1;stroke-width:0;stroke-miterlimit:4;stroke-dasharray:none;stroke-dashoffset:0"
       id="path3839"
       d="m 577.52683,376.96623 c 2.76072,7.60155 6.41277,14.82873 9.97428,22.07536 4.68784,9.67687 10.37474,18.7451 16.95448,27.23136 3.27544,3.76716 1.65394,1.98056 4.84982,5.3731 0,0 -10.52934,9.62938 -10.52934,9.62938 l 0,0 c -3.62284,-4.06416 -1.77096,-1.91562 -5.5367,-6.46189 -6.95668,-9.28648 -13.06258,-19.11304 -18.21578,-29.52266 -3.66834,-7.19055 -7.40164,-14.3564 -10.59718,-21.77444 0,0 13.10042,-6.55021 13.10042,-6.55021 z"
       inkscape:connector-curvature="0" />
    <path
       style="fill:#000000;fill-opacity:1;stroke-width:0;stroke-miterlimit:4;stroke-dasharray:none;stroke-dashoffset:0"
       id="path3841"
       d="m 509.04683,443.9373 c 2.10399,-2.06205 3.76935,-3.81123 6.13745,-5.61857 2.00842,-1.53283 4.10907,-2.94108 6.18031,-4.38789 6.30395,-4.40347 12.68697,-8.67628 19.14145,-12.85452 4.71396,-2.8599 9.53727,-5.5531 14.63017,-7.68301 2.03379,-0.85055 4.86786,-1.9324 7.08287,-2.25234 1.37965,-0.19928 2.78429,-0.14242 4.17643,-0.21362 6.365,0.36991 12.10168,3.27084 18.0742,5.19457 2.20811,0.64337 4.28629,1.59836 6.34826,2.59802 0,0 -6.53036,13.00607 -6.53036,13.00607 l 0,0 c -1.4142,-0.75589 -2.86297,-1.42499 -4.40123,-1.89954 -4.43727,-1.53068 -8.73672,-3.51924 -13.3463,-4.48282 -2.08537,-0.2945 -3.83508,0.35383 -5.80914,1.08544 -4.47599,1.65887 -8.71466,3.87173 -12.84062,6.25808 -9.42617,5.88284 -19.01866,11.88098 -26.91966,19.76715 0,0 -11.92383,-8.51702 -11.92383,-8.51702 z"
       inkscape:connector-curvature="0" />
    <path
       style="fill:#000000;fill-opacity:1;stroke-width:0;stroke-miterlimit:4;stroke-dasharray:none;stroke-dashoffset:0"
       id="path3843"
       d="m 418.79017,279.73562 c -4.40683,0.96773 -8.49376,2.78611 -12.56052,4.67505 -4.52903,2.42894 -9.26253,4.32112 -14.08125,6.07867 -3.27091,1.09573 -6.62661,1.79844 -9.90666,2.85435 0,0 -4.42892,-13.85053 -4.42892,-13.85053 l 0,0 c 3.10644,-0.98712 6.26705,-1.67183 9.38257,-2.61379 4.4315,-1.60922 8.81349,-3.2623 12.97737,-5.50716 5.49047,-2.55088 11.05461,-4.8951 17.00019,-6.19162 0,0 1.61722,14.55503 1.61722,14.55503 z"
       inkscape:connector-curvature="0" />
    <path
       style="fill:#000000;fill-opacity:1;stroke-width:0;stroke-miterlimit:4;stroke-dasharray:none;stroke-dashoffset:0"
       id="path3845"
       d="m 381.03285,280.27048 c 2.07749,6.2424 6.61406,11.34131 10.77887,16.29664 4.14698,4.41452 8.66011,8.40641 14.36826,10.5734 4.66469,2.35083 9.69425,3.45604 14.83329,4.10917 1.54178,0.14395 3.16468,0.38947 4.69482,-0.023 0.1855,-0.05 0.70688,-0.20648 0.51961,-0.24939 -0.3103,-0.0711 -1.1859,0.1861 -1.56656,0.28723 0.8246,-4.2107 0.96562,-8.50919 1.07548,-12.79132 0.24174,-2.76757 -0.15855,-5.47506 -0.60558,-8.19152 0,0 14.17718,-2.1783 14.17718,-2.1783 l 0,0 c 0.5202,3.56175 1.03501,7.13421 0.74342,10.74792 -0.19199,7.08297 -0.0955,14.4381 -3.55227,20.84262 -0.91752,1.0755 -1.66047,2.32878 -2.75256,3.2265 -4.1593,3.41905 -9.67686,3.2442 -14.68478,2.6191 -6.32107,-0.91004 -12.56642,-2.2994 -18.35867,-5.08617 -1.10172,-0.47306 -2.23032,-0.88786 -3.30515,-1.41917 -6.42225,-3.17468 -11.51007,-8.32774 -16.42756,-13.41346 -5.47135,-6.58996 -11.21994,-13.27003 -14.02317,-21.50876 0,0 14.08537,-3.84146 14.08537,-3.84146 z"
       inkscape:connector-curvature="0" />
    <path
       style="fill:#000000;fill-opacity:1;stroke-width:0;stroke-miterlimit:4;stroke-dasharray:none;stroke-dashoffset:0"
       id="path3847"
       d="m 571.03725,247.8526 c -7.64908,3.52855 -14.95189,7.71717 -22.32613,11.77114 -4.2046,2.49312 -8.33441,5.20726 -12.97161,6.85128 -2.26768,0.80396 -4.14736,1.19223 -6.46425,1.74522 -4.16611,0.90449 -8.39709,1.4206 -12.59733,2.12831 0,0 -2.48704,-14.06463 -2.48704,-14.06463 l 0,0 c 3.91853,-0.72175 7.85819,-1.29888 11.76882,-2.066 0.86071,-0.20176 3.53065,-0.80472 4.47755,-1.10691 4.13287,-1.31898 7.74282,-3.83984 11.51629,-5.89947 7.71264,-4.15666 15.37291,-8.41431 23.04763,-12.63829 0,0 6.03607,13.27935 6.03607,13.27935 z"
       inkscape:connector-curvature="0" />
    <path
       style="fill:#000000;fill-opacity:1;stroke-width:0;stroke-miterlimit:4;stroke-dasharray:none;stroke-dashoffset:0"
       id="path3849"
       d="m 525.37775,256.41789 c 5.45143,8.31473 10.49008,16.90279 16.34571,24.94904 1.51471,2.08138 3.12044,4.09499 4.68067,6.14248 3.08325,3.213 6.6712,9.59143 12.02303,9.65614 1.04912,0.0127 2.0332,-0.52914 3.02237,-0.87894 6.19663,-2.19128 5.39512,-2.14148 11.80562,-5.72738 9.31315,-6.24756 17.67348,-13.97945 22.79812,-24.05447 1.30495,-1.44575 0.48997,-3.21673 0.37649,-2.22923 -0.0548,0.47701 0.0453,0.95922 0.068,1.43883 0,0 12.92576,-6.73745 12.92576,-6.73745 l 0,0 c 0.51556,1.4252 1.25984,2.78741 1.54668,4.2756 0.68263,3.54168 -0.91399,7.10524 -2.41988,10.16915 -2.04003,3.48237 -2.45051,4.42116 -5.07275,7.78194 -6.55358,8.39936 -14.79379,15.26135 -23.63329,21.13871 -8.6059,4.81133 -16.38746,9.91585 -26.87053,7.70773 -7.46782,-1.573 -12.86575,-8.86318 -17.3927,-14.28415 -7.49235,-9.81123 -14.36469,-20.04132 -21.46144,-30.13681 0,0 11.25811,-9.21119 11.25811,-9.21119 z"
       inkscape:connector-curvature="0" />
    <path
       style="fill:#000000;fill-opacity:1;stroke-width:0;stroke-miterlimit:4;stroke-dasharray:none;stroke-dashoffset:0"
       id="path3851"
       d="m 404.29662,278.78524 c 0.70791,3.78266 1.58312,7.5267 2.20164,11.32669 0.7202,4.99819 -0.15342,9.89345 -1.60856,14.66469 -1.67362,3.41739 -0.76908,1.87779 -2.63466,4.66428 0,0 -11.99675,-8.27003 -11.99675,-8.27003 l 0,0 c 0.59588,-0.80364 0.25986,-0.63967 0.76685,-0.81857 0.89397,-2.57912 1.42327,-5.2107 1.15315,-7.95303 -0.61947,-3.97346 -1.61984,-7.85936 -2.43199,-11.79524 0,0 14.55032,-1.81879 14.55032,-1.81879 z"
       inkscape:connector-curvature="0" />
    <path
       style="fill:#000000;fill-opacity:1;stroke-width:0;stroke-miterlimit:4;stroke-dasharray:none;stroke-dashoffset:0"
       id="path3853"
       d="m 560.93779,255.50074 c 0.35729,4.88318 1.06548,9.73085 1.50935,14.60701 0.67678,5.22701 0.29866,9.22989 -1.5799,14.15919 -2.48356,4.95923 -4.77882,7.56469 -9.89211,9.8948 -1.29888,0.44885 -2.63557,0.74122 -3.91124,1.24922 0,0 -5.07199,-13.71754 -5.07199,-13.71754 l 0,0 c 1.10416,-0.3953 2.22739,-0.87458 3.39865,-1.04109 0.0766,-4.4e-4 0.1723,-0.052 0.22969,-0.001 0.0467,0.0412 -0.0832,0.1896 -0.0211,0.18551 0.84267,-0.0554 1.16831,-1.61343 1.7599,-2.02064 1.13065,-2.3972 0.96716,-4.85503 0.67845,-7.46331 -0.38153,-4.69753 -0.95257,-9.37189 -1.65005,-14.03304 0,0 14.55031,-1.81879 14.55031,-1.81879 z"
       inkscape:connector-curvature="0" />
    <path
       style="fill:#000000;fill-opacity:1;stroke-width:0;stroke-miterlimit:4;stroke-dasharray:none;stroke-dashoffset:0"
       id="path3859"
       d="m 356.72758,78.871004 c -2.34367,-6.948849 -3.98084,-14.116933 -5.59367,-21.264242 -0.88569,-3.386973 -1.29864,-6.744856 -1.13752,-10.229787 0,0 14.54252,1.490617 14.54252,1.490617 l 0,0 c -0.54583,0.138225 0.5279,5.096911 0.61128,5.732872 1.2778,6.312067 2.66161,12.660173 5.02599,18.666957 0,0 -13.4486,5.603583 -13.4486,5.603583 z"
       inkscape:connector-curvature="0" />
    <path
       style="fill:#000000;fill-opacity:1;stroke-width:0;stroke-miterlimit:4;stroke-dasharray:none;stroke-dashoffset:0"
       id="path3861"
       d="m 392.66826,79.601785 c -0.14799,-4.353988 -0.82955,-8.741699 -0.54556,-13.105006 0.0774,-1.188984 0.27995,-2.3665 0.41992,-3.549749 0.90481,-5.746837 2.3781,-11.343996 4.7405,-16.659236 2.35374,-4.30482 5.13873,-8.323591 8.98226,-11.400349 0.66484,-0.383391 1.32968,-0.766781 1.99452,-1.150171 0,0 6.76211,12.987697 6.76211,12.987697 l 0,0 c -0.0208,-0.02641 -0.0416,-0.05281 -0.0624,-0.07922 -1.62157,0.47605 -3.4677,4.374924 -4.54524,5.712296 -1.93276,3.909809 -2.76776,8.228913 -3.58646,12.486789 -0.69264,4.286573 -0.10393,8.653538 0.39066,12.938162 0,0 -14.55032,1.81879 -14.55032,1.81879 z"
       inkscape:connector-curvature="0" />
    <path
       style="fill:#000000;fill-opacity:1;stroke-width:0;stroke-miterlimit:4;stroke-dasharray:none;stroke-dashoffset:0"
       id="path3863"
       d="m 359.30846,97.087039 c 3.10928,-10.14491 5.45514,-20.500424 8.1091,-30.769361 1.29537,-4.396889 2.34398,-8.858419 4.02466,-13.132316 0.90342,-2.29738 2.01042,-4.962139 4.21542,-6.383212 1.74282,-1.123205 3.89164,-1.43217 5.83746,-2.148256 1.65302,0.233231 3.30603,0.466461 4.95904,0.699692 0,0 -3.33456,14.073723 -3.33456,14.073723 l 0,0 c 0.1294,-0.127766 0.2588,-0.255533 0.3882,-0.383299 0.68779,-0.540131 1.48582,-0.963715 2.06338,-1.620393 0.20373,-0.231633 0.37041,-1.139301 0.16299,-0.910964 -0.44958,0.494939 -0.6641,1.162732 -0.9435,1.770209 -1.71559,3.730024 -2.61033,7.745511 -3.93128,11.61751 -2.7605,10.038076 -5.06683,20.186445 -7.25811,30.362848 0,0 -14.2928,-3.176181 -14.2928,-3.176181 z"
       inkscape:connector-curvature="0" />
    <path
       style="fill:#000000;fill-opacity:1;stroke-width:0;stroke-miterlimit:4;stroke-dasharray:none;stroke-dashoffset:0"
       id="path3865"
       d="m 452.31091,39.623574 c 4.76159,-1.949915 9.54624,-3.834024 14.43297,-5.447025 0,0 4.37199,13.763408 4.37199,13.763408 l 0,0 c -4.20561,1.272829 -8.32766,2.804432 -12.29291,4.707703 0,0 -6.51205,-13.024086 -6.51205,-13.024086 z"
       inkscape:connector-curvature="0" />
    <path
       style="fill:#000000;fill-opacity:1;stroke-width:0;stroke-miterlimit:4;stroke-dasharray:none;stroke-dashoffset:0"
       id="path3867"
       d="m 432.82271,74.822929 c 5.4472,-12.251852 15.88492,-20.927456 26.10077,-29.117478 8.15065,-6.385955 17.0485,-11.714666 26.05892,-16.777935 0,0 6.71765,12.560064 6.71765,12.560064 l 0,0 c -8.47072,4.283486 -16.79847,8.931681 -24.26313,14.842647 -8.07172,6.463996 -16.61149,13.32987 -20.78619,23.102042 0,0 -13.82802,-4.60934 -13.82802,-4.60934 z"
       inkscape:connector-curvature="0" />
    <path
       style="fill:#000000;fill-opacity:1;stroke-width:0;stroke-miterlimit:4;stroke-dasharray:none;stroke-dashoffset:0"
       id="path3869"
       d="m 485.09947,63.264244 c 4.49795,4.119557 8.87075,8.344897 12.84224,12.977689 4.86162,5.971086 7.84855,13.04535 10.14067,20.320152 0.93627,3.204557 1.44256,6.498385 1.80493,9.808415 0,0 -14.49139,1.40105 -14.49139,1.40105 l 0,0 c -0.18667,-2.37154 -0.47107,-4.73613 -1.08225,-7.04227 -1.55976,-5.442328 -3.68583,-10.7493 -7.28878,-15.190331 -3.44494,-4.080868 -7.3081,-7.790205 -11.45396,-11.158077 0,0 9.52854,-11.116628 9.52854,-11.116628 z"
       inkscape:connector-curvature="0" />
    <path
       style="fill:#000000;fill-opacity:1;stroke-width:0;stroke-miterlimit:4;stroke-dasharray:none;stroke-dashoffset:0"
       id="path3871"
       d="m 657.46552,27.939691 c 5.45858,0.577383 10.37159,1.49668 15.45878,3.616388 4.5101,1.902777 8.2646,5.061955 12.05202,8.080025 4.97011,4.346344 9.78161,8.877022 14.47747,13.517768 3.33589,3.611776 6.04057,7.69688 8.45913,11.95438 0,0 -12.50034,7.017842 -12.50034,7.017842 l 0,0 c -1.71944,-3.118678 -3.72068,-6.065537 -6.02605,-8.787454 -4.30842,-4.259665 -8.7336,-8.40555 -13.31833,-12.366805 -2.85765,-2.214676 -5.68019,-4.57631 -8.96437,-6.138443 -3.02712,-1.471606 -6.33521,-1.805887 -9.63831,-2.267132 0,0 0,-14.626569 0,-14.626569 z"
       inkscape:connector-curvature="0" />
    <path
       style="fill:#000000;fill-opacity:1;stroke-width:0;stroke-miterlimit:4;stroke-dasharray:none;stroke-dashoffset:0"
       id="path3873"
       d="m 548.7596,100.2622 c 1.50589,-6.159874 3.48136,-12.17259 6.03602,-17.975137 1.3155,-2.848841 3.17316,-5.364041 5.03097,-7.869148 0,0 11.53174,8.69799 11.53174,8.69799 l 0,0 c -1.26102,1.632784 -2.53032,3.265384 -3.45935,5.120442 -2.28589,4.836324 -3.93742,9.922106 -4.84657,15.202033 0,0 -14.29281,-3.17618 -14.29281,-3.17618 z"
       inkscape:connector-curvature="0" />
    <path
       style="fill:#000000;fill-opacity:1;stroke-width:0;stroke-miterlimit:4;stroke-dasharray:none;stroke-dashoffset:0"
       id="path3875"
       d="m 473.6661,314.9572 c -4.04315,7.49419 -6.95326,15.57709 -9.67461,23.62972 -2.38927,7.99667 -5.12526,15.89694 -7.10388,24.01022 -0.70989,2.94947 -1.98748,5.71148 -3.03588,8.5464 0,0 -13.6599,-5.12959 -13.6599,-5.12959 l 0,0 c 0.90372,-2.37815 1.93891,-4.70369 2.76058,-7.10908 2.36103,-8.32847 5.33955,-16.46385 7.82342,-24.75559 2.99125,-8.96164 6.22849,-17.87076 10.15874,-26.46724 0,0 12.73153,7.27516 12.73153,7.27516 z"
       inkscape:connector-curvature="0" />
    <path
       style="fill:#000000;fill-opacity:1;stroke-width:0;stroke-miterlimit:4;stroke-dasharray:none;stroke-dashoffset:0"
       id="path3881"
       d="m 450.27071,361.07 c 9.01957,-3.17074 17.85815,-6.81758 26.68827,-10.47396 0,0 5.2104,12.96067 5.2104,12.96067 l 0,0 c -8.8673,3.45763 -17.70168,7.00182 -26.39053,10.89019 0,0 -5.50814,-13.3769 -5.50814,-13.3769 z"
       inkscape:connector-curvature="0" />
    <path
       style="fill:#000000;fill-opacity:1;stroke-width:0;stroke-miterlimit:4;stroke-dasharray:none;stroke-dashoffset:0"
       id="path3893"
       d="m 690.37438,214.06589 c 5.13952,-7.8582 11.20922,-14.98975 18.35054,-21.07896 4.79405,-3.57689 10.38728,-5.56748 16.34207,-3.68744 3.17913,1.0037 5.56373,2.78176 8.29489,4.55326 6.26618,4.6197 10.67565,9.6509 14.36092,16.45359 2.13146,4.28424 2.78228,8.94533 3.0918,13.66453 0.0907,1.38329 0.22563,2.76891 0.18627,4.15461 -0.0532,1.87188 -0.30886,3.73251 -0.46329,5.59877 -2.03382,12.66057 -7.1747,24.49142 -12.74663,35.94262 -2.84881,6.11866 -6.49774,11.79396 -10.98452,16.82452 0,0 -10.55056,-9.85966 -10.55056,-9.85966 l 0,0 c 3.82114,-3.7542 6.56351,-8.4547 8.99863,-13.18546 4.96776,-9.8008 9.50684,-19.95522 11.21726,-30.89889 0.10459,-1.22954 0.29653,-2.45476 0.31377,-3.68862 0.0552,-3.95219 -0.46128,-8.08576 -1.83046,-11.7995 -2.27228,-4.45839 -5.37333,-8.29313 -9.44247,-11.27521 -1.21021,-0.81377 -2.4553,-1.57681 -3.64047,-2.42665 -1.79877,-1.28984 -1.99926,-0.46424 -4.06247,0.65161 -5.80127,4.56572 -10.72157,10.14017 -14.33486,16.60709 0,0 -13.10042,-6.55021 -13.10042,-6.55021 z"
       inkscape:connector-curvature="0" />
    <path
       style="fill:#000000;fill-opacity:1;stroke-width:0;stroke-miterlimit:4;stroke-dasharray:none;stroke-dashoffset:0"
       id="path3895"
       d="m 728.44048,235.47909 c -1.99547,4.58863 -0.84601,2.12874 -3.52288,7.34439 0,0 -12.74894,-6.19354 -12.74894,-6.19354 l 0,0 c 1.85094,-4.08823 1.13363,-2.28824 2.27016,-5.35135 0,0 14.00166,4.2005 14.00166,4.2005 z"
       inkscape:connector-curvature="0" />
    <path
       style="fill:#000000;fill-opacity:1;stroke-width:0;stroke-miterlimit:4;stroke-dasharray:none;stroke-dashoffset:0"
       id="path3899"
       d="m 364.54571,243.86958 c 11.69239,0.40026 23.39519,0.43207 35.09334,0.49287 11.27481,0.0584 22.54979,-0.0515 33.82294,-0.23854 0,0 0,14.07974 0,14.07974 l 0,0 c -11.27315,-0.18699 -22.54813,-0.29697 -33.82294,-0.23854 -11.69815,0.0608 -23.40095,0.0926 -35.09334,0.49287 0,0 0,-14.5884 0,-14.5884 z"
       inkscape:connector-curvature="0" />
    <path
       style="fill:#000000;fill-opacity:1;stroke-width:0;stroke-miterlimit:4;stroke-dasharray:none;stroke-dashoffset:0"
       id="path3903"
       d="m 512.86464,228.9396 c 16.5769,-10.59937 29.31242,-26.09385 41.55241,-41.23763 5.55052,-7.05782 10.21793,-14.70282 14.70814,-22.45303 0,0 11.70228,7.08727 11.70228,7.08727 l 0,0 c -5.10221,8.09192 -10.3286,16.10965 -16.3576,23.55872 -12.40023,15.09415 -25.10989,30.20025 -40.32035,42.59288 -1.42551,1.16142 -2.97643,2.15981 -4.46465,3.23971 0,0 -6.82023,-12.78792 -6.82023,-12.78792 z"
       inkscape:connector-curvature="0" />
    <path
       style="fill:#000000;fill-opacity:1;stroke-width:0;stroke-miterlimit:4;stroke-dasharray:none;stroke-dashoffset:0"
       id="path3406"
       d="m 484.20633,518.62233 c -8.4611,11.04349 -19.92415,18.34119 -31.94794,25.0242 -17.07719,9.49178 -20.56819,10.57431 -39.20513,19.01547 -8.27956,3.27646 -16.55913,6.55292 -24.83869,9.82939 0,0 -4.0725,-10.04007 -4.0725,-10.04007 l 0,0 c 8.04326,-3.34448 16.08652,-6.68896 24.12978,-10.03345 18.71257,-9.00397 20.48645,-9.2789 37.36702,-19.43446 9.80946,-5.9015 19.50953,-12.44652 26.26755,-21.8777 0,0 12.29991,7.51662 12.29991,7.51662 z"
       inkscape:connector-curvature="0" />
    <path
       style="fill:#000000;fill-opacity:1;stroke-width:0;stroke-miterlimit:4;stroke-dasharray:none;stroke-dashoffset:0"
       id="path3408"
       d="m 618.98773,494.09108 c 1.61563,3.74635 2.73725,6.68983 5.23097,10.2336 6.84828,9.73195 18.13312,19.9764 27.79736,26.72659 4.04686,2.82662 8.43989,5.1221 12.65984,7.68315 9.72841,4.64885 14.3234,7.58823 24.71578,9.87368 3.20037,0.70381 6.51725,0.69018 9.77587,1.03528 0,0 -1.75417,13.04084 -1.75417,13.04084 l 0,0 c -4.01352,-0.63311 -8.10397,-0.89312 -12.04055,-1.89932 -11.34984,-2.90105 -16.58993,-6.19523 -27.17258,-11.3976 -4.6639,-2.83925 -9.50487,-5.4062 -13.9917,-8.51773 -4.28205,-2.96952 -8.30864,-6.30164 -12.26617,-9.69163 -6.86171,-5.87767 -13.86416,-12.69721 -19.42341,-19.88416 -2.29022,-2.96079 -5.28141,-8.52616 -7.25254,-12.05721 0,0 13.7213,-5.14549 13.7213,-5.14549 z"
       inkscape:connector-curvature="0" />
  </g>
</svg>
